<svg class="icon" viewBox="0 0 24 24"  xmlns="http://www.w3.org/2000/svg">
    <path d="M5 21H8C9.10457 21 10 20.1046 10 19V15C10 14.4477 10.4477 14 11 14H12H13C13.5523 14 14 14.4477 14 15V19C14 20.1046 14.8954 21 16 21H19C20.1046 21 21 20.1046 21 19V12.7675C21 12.2734 20.8171 11.7968 20.4866 11.4295L13.4866 3.65176C12.6921 2.769 11.3079 2.76901 10.5134 3.65177L3.51341 11.4295C3.18289 11.7968 3 12.2734 3 12.7675V19C3 20.1046 3.89543 21 5 21Z" fill="black" style="fill:black;fill-opacity:1;"/>
</svg>
